<?xml version="1.0" encoding="utf-8"?>
<!-- Generator: Adobe Illustrator 16.0.0, SVG Export Plug-In . SVG Version: 6.00 Build 0)  -->
<!DOCTYPE svg PUBLIC "-//W3C//DTD SVG 1.1//EN" "http://www.w3.org/Graphics/SVG/1.1/DTD/svg11.dtd">
<svg version="1.1" id="Layer_1" xmlns="http://www.w3.org/2000/svg" xmlns:xlink="http://www.w3.org/1999/xlink" x="0px" y="0px"
	 width="512px" height="512px" viewBox="0 0 512 512" enable-background="new 0 0 512 512" xml:space="preserve">
<g id="_x36__food_x2C__market_x2C__purchase_x2C__shop_x2C__shopping_x2C__commerce_x2C__basket">
	<g>
		<polygon fill="#DA4453" points="475.965,216.008 4.042,216.008 28.038,200.01 499.961,200.01 		"/>
	</g>
	<g>
		<polygon fill="#FFCE54" points="465.717,216.008 445.095,216.008 468.31,152.018 507.96,152.018 		"/>
	</g>
	<g>
		<polygon fill="#48CFAD" points="445.095,216.008 359.733,216.008 416.615,60.111 491.729,87.47 		"/>
	</g>
	<g opacity="0.2">
		<polygon points="468.31,152.018 445.095,216.008 453.094,216.008 476.309,152.018 		"/>
	</g>
	<g opacity="0.2">
		<polygon points="416.615,60.111 415.678,62.681 483.729,87.47 437.096,216.008 445.095,216.008 491.729,87.47 		"/>
	</g>
	<g opacity="0.3">
		<polygon fill="#FFFFFF" points="416.615,60.111 359.733,216.008 367.732,216.008 423.676,62.681 		"/>
	</g>
	<g>
		<polygon fill="#E6E9ED" points="427.973,216.008 376.98,216.008 410.616,123.464 455.647,139.86 		"/>
	</g>
	<g opacity="0.2">
		<polygon points="410.616,123.464 409.679,126.038 447.649,139.86 419.974,216.008 427.973,216.008 455.647,139.86 		"/>
	</g>
	<g>
		<polygon fill="#FFFFFF" points="410.616,123.464 376.98,216.008 384.979,216.008 417.678,126.038 		"/>
	</g>
	<g>
		<rect x="315.99" y="160.017" fill="#CCD1D9" width="15.998" height="15.997"/>
	</g>
	<g>
		<path fill="#5D9CEC" d="M323.989,176.014c-13.248,0-23.996,10.745-23.996,23.996v15.998h6.233h35.525h6.233V200.01
			C347.985,186.759,337.237,176.014,323.989,176.014z"/>
	</g>
	<g>
		<rect x="68.031" y="112.025" fill="#E6E9ED" width="79.987" height="15.997"/>
	</g>
	<g>
		<polygon fill="#FC6E51" points="68.031,128.022 148.018,128.022 164.016,152.018 84.029,152.018 		"/>
	</g>
	<g opacity="0.2">
		<polygon points="148.018,128.022 140.02,128.022 156.017,152.018 164.016,152.018 		"/>
	</g>
	<g opacity="0.2">
		<polygon fill="#FFFFFF" points="68.031,128.022 84.029,152.018 92.027,152.018 76.03,128.022 		"/>
	</g>
	<g>
		<rect x="84.029" y="152.018" fill="#FC6E51" width="79.987" height="59.99"/>
	</g>
	<g>
		<polygon fill="#E9573F" points="84.029,212.008 52.034,212.008 52.034,152.018 68.031,128.022 84.029,152.018 		"/>
	</g>
	<g>
		<circle fill="#FFCE54" cx="124.061" cy="216.008" r="23.996"/>
	</g>
	<g>
		<polygon fill="#DA4453" points="481.753,236.145 459.967,240.004 411.975,471.966 435.971,455.969 		"/>
	</g>
	<g>
		<polygon fill="#ED5564" points="411.975,471.966 68.031,471.966 20.039,240.004 459.967,240.004 		"/>
	</g>
	<g opacity="0.2">
		<polygon points="443.97,240.004 395.978,471.966 411.975,471.966 459.967,240.004 		"/>
	</g>
	<g opacity="0.3">
		<polygon fill="#FFFFFF" points="20.039,240.004 68.031,471.966 84.029,471.966 36.036,240.004 		"/>
	</g>
	<g opacity="0.2">
		<polygon points="475.965,216.008 4.042,216.008 16.04,208.009 487.963,208.009 		"/>
	</g>
	<g>
		<polygon fill="#DA4453" points="499.961,224.006 475.965,240.004 475.965,216.008 499.961,200.01 		"/>
	</g>
	<g opacity="0.2">
		<polygon points="481.753,236.145 459.967,240.004 411.975,471.966 435.971,455.969 		"/>
	</g>
	<g opacity="0.2">
		<polygon points="499.961,224.006 475.965,240.004 475.965,216.008 499.961,200.01 		"/>
	</g>
	<g>
		<rect x="4.042" y="216.008" fill="#ED5564" width="471.923" height="23.997"/>
	</g>
	<g>
		<rect x="228.005" y="56.034" fill="#656D78" width="23.996" height="171.973"/>
	</g>
	<g>
		<polygon fill="#434A54" points="275.997,40.037 252.001,40.037 228.005,56.034 252.001,56.034 		"/>
	</g>
	<g>
		<polygon fill="#656D78" points="252.001,56.034 275.997,40.037 275.997,200.01 252.001,200.01 		"/>
	</g>
	<g>
		<path fill="#656D78" d="M347.985,299.994l-7.999,111.981c0,6.64-5.358,11.998-11.998,11.998c-6.639,0-11.998-5.358-11.998-11.998
			l7.999-111.981c0-6.64,5.358-11.998,11.998-11.998S347.985,293.354,347.985,299.994z"/>
	</g>
	<g opacity="0.2">
		<path d="M323.989,411.976l7.999-111.981c0-5.226,3.343-9.616,7.998-11.265c-1.258-0.444-2.593-0.733-3.999-0.733
			c-6.64,0-11.998,5.358-11.998,11.998l-7.999,111.981c0,6.64,5.359,11.998,11.998,11.998c1.406,0,2.742-0.289,4-0.727
			C327.332,421.6,323.989,417.21,323.989,411.976z"/>
	</g>
	<g>
		<polygon fill="#E6E9ED" points="331.988,160.017 315.99,160.017 307.992,160.017 307.992,144.02 347.985,152.018 347.985,160.017 
					"/>
	</g>
	<g>
		<path fill="#656D78" d="M458.288,62.513c20.716,7.519,35.674,18.716,33.44,24.957c-2.25,6.237-20.888,5.116-41.682-2.402
			c-20.715-7.596-35.752-18.798-33.432-24.957C418.85,53.874,437.486,54.913,458.288,62.513z"/>
	</g>
	<g opacity="0.2">
		<path d="M458.288,62.513c-13.693-5.003-26.348-7.101-34.104-6.21c7.304,0.625,16.428,2.675,26.105,6.21
			c20.716,7.519,35.674,18.716,33.44,24.957c-0.766,2.121-3.531,3.323-7.53,3.78c8.373,0.719,14.326-0.449,15.529-3.78
			C493.962,81.229,479.004,70.032,458.288,62.513z"/>
	</g>
	<g opacity="0.3">
		<path fill="#FFFFFF" d="M458.046,85.068c-20.716-7.596-35.752-18.798-33.433-24.957c0.766-2.128,3.547-3.347,7.569-3.808
			c-8.397-0.719-14.372,0.473-15.567,3.808c-2.32,6.159,12.717,17.361,33.432,24.957c13.732,4.964,26.402,7.069,34.151,6.183
			C476.887,90.622,467.739,88.572,458.046,85.068z"/>
	</g>
	<g>
		<path fill="#656D78" d="M252.001,299.994v111.981c0,6.64-5.358,11.998-11.998,11.998s-11.998-5.358-11.998-11.998V299.994
			c0-6.64,5.358-11.998,11.998-11.998S252.001,293.354,252.001,299.994z"/>
	</g>
	<g opacity="0.2">
		<path d="M236.004,411.976V299.994c0-5.226,3.343-9.616,7.999-11.265c-1.257-0.444-2.589-0.733-3.999-0.733
			c-6.64,0-11.998,5.358-11.998,11.998v111.981c0,6.64,5.358,11.998,11.998,11.998c1.41,0,2.742-0.289,3.999-0.727
			C239.347,421.6,236.004,417.21,236.004,411.976z"/>
	</g>
	<g>
		<path fill="#656D78" d="M156.017,299.994l7.999,111.981c0,6.64-5.359,11.998-11.998,11.998c-6.64,0-11.998-5.358-11.998-11.998
			l-7.999-111.981c0-6.64,5.358-11.998,11.998-11.998S156.017,293.354,156.017,299.994z"/>
	</g>
	<g opacity="0.2">
		<path d="M148.018,411.976l-7.999-111.981c0-5.226,3.343-9.616,7.999-11.265c-1.258-0.444-2.589-0.733-3.999-0.733
			c-6.64,0-11.998,5.358-11.998,11.998l7.999,111.981c0,6.64,5.358,11.998,11.998,11.998c1.41,0,2.742-0.289,4-0.727
			C151.361,421.6,148.018,417.21,148.018,411.976z"/>
	</g>
	<g opacity="0.2">
		<rect x="84.029" y="152.018" fill="#FFFFFF" width="7.998" height="55.991"/>
	</g>
	<g opacity="0.2">
		<rect x="156.017" y="152.018" width="7.999" height="55.991"/>
	</g>
	<g>
		<rect x="68.031" y="112.025" fill="#FFFFFF" width="7.999" height="15.997"/>
	</g>
	<g opacity="0.2">
		<rect x="140.02" y="112.025" width="7.999" height="15.997"/>
	</g>
	<g opacity="0.2">
		<path fill="#FFFFFF" d="M307.992,208.009v-7.999c0-11.881,8.654-21.68,19.996-23.594c-1.312-0.219-2.624-0.402-3.999-0.402
			c-13.248,0-23.996,10.745-23.996,23.996v7.999H307.992z"/>
	</g>
	<g opacity="0.2">
		<path d="M339.986,208.009v-7.999c0-11.881-8.654-21.68-19.996-23.594c1.312-0.219,2.624-0.402,3.999-0.402
			c13.248,0,23.996,10.745,23.996,23.996v7.999H339.986z"/>
	</g>
	<g opacity="0.3">
		<rect x="4.042" y="216.008" fill="#FFFFFF" width="15.997" height="23.997"/>
	</g>
	<g opacity="0.2">
		<rect x="459.967" y="216.008" width="15.998" height="23.997"/>
	</g>
	<g opacity="0.3">
		<rect x="228.005" y="56.034" fill="#FFFFFF" width="7.999" height="171.973"/>
	</g>
	<g opacity="0.2">
		<rect x="244.002" y="56.034" width="7.999" height="171.973"/>
	</g>
	<g opacity="0.2">
		<polygon points="275.997,198.89 267.998,198.89 267.998,45.368 275.997,40.037 		"/>
	</g>
	<g opacity="0.2">
		<polygon points="260,198.89 252.001,198.89 252.001,56.034 260,50.703 		"/>
	</g>
	<g opacity="0.2">
		<polygon points="442.314,248.002 37.692,248.002 36.036,240.004 444.688,240.004 		"/>
	</g>
	<g>
		<g>
			<path fill="#3A3847" d="M480.604,95.512c-8.529,0-20.169-2.437-31.917-6.683c-18.027-6.608-31.893-15.755-35.354-23.309
				c-1.375-3-1.016-5.367-0.461-6.819c1.578-4.398,6.601-6.659,14.928-6.659c8.576,0,20.184,2.448,31.854,6.713
				c19.864,7.209,39.556,19.692,35.838,30.065C493.892,93.262,488.885,95.512,480.604,95.512z M427.801,60.041
				c-5.233,0-7.179,1.094-7.452,1.477c-0.125,2.746,10.687,12.318,31.073,19.798c10.889,3.937,21.543,6.198,29.183,6.198
				c5.179,0,7.108-1.078,7.39-1.453c0.156-2.191-9.076-11.803-31.073-19.786C446.087,62.314,435.472,60.041,427.801,60.041z"/>
		</g>
		<g>
			<path fill="#3A3847" d="M455.655,143.859c-0.172,0-0.343-0.012-0.515-0.031c-7.53-0.976-15.92-3.125-24.246-6.218
				c-8.28-2.972-16.061-6.702-22.435-10.776c-1.858-1.191-2.405-3.663-1.219-5.522c1.188-1.867,3.672-2.413,5.53-1.218
				c5.875,3.757,13.092,7.213,20.872,10.002c7.694,2.858,15.677,4.913,22.512,5.796c2.195,0.285,3.742,2.289,3.461,4.479
				C459.358,142.391,457.632,143.859,455.655,143.859z"/>
		</g>
		<g>
			<path fill="#3A3847" d="M365.662,204.01c-0.453,0-0.914-0.078-1.367-0.242c-2.077-0.754-3.147-3.051-2.39-5.125l50.952-139.899
				c0.758-2.074,3.055-3.144,5.125-2.39c2.077,0.754,3.147,3.05,2.39,5.124L369.42,201.377
				C368.826,203.002,367.295,204.01,365.662,204.01z"/>
		</g>
		<g>
			<path fill="#3A3847" d="M450.766,204.01c-0.453,0-0.906-0.078-1.359-0.242c-2.077-0.754-3.155-3.047-2.39-5.125l40.946-112.544
				c0.758-2.066,3.055-3.132,5.132-2.386c2.07,0.753,3.148,3.05,2.383,5.128l-40.946,112.537
				C453.938,203.002,452.406,204.01,450.766,204.01z"/>
		</g>
		<g>
			<path fill="#3A3847" d="M383.183,202.889c-0.453,0-0.921-0.078-1.374-0.242c-2.078-0.754-3.141-3.051-2.391-5.124l27.441-75.426
				c0.757-2.074,3.054-3.136,5.123-2.39c2.078,0.753,3.148,3.05,2.391,5.125l-27.44,75.425
				C386.347,201.881,384.808,202.889,383.183,202.889z"/>
		</g>
		<g>
			<path fill="#3A3847" d="M433.737,204.01c-0.461,0-0.922-0.078-1.375-0.242c-2.077-0.754-3.14-3.051-2.39-5.128l21.918-60.15
				c0.75-2.078,3.062-3.136,5.124-2.386c2.078,0.754,3.147,3.05,2.391,5.128l-21.919,60.15
				C436.9,203.002,435.362,204.01,433.737,204.01z"/>
		</g>
		<g>
			<path fill="#3A3847" d="M475.965,244.003H4.042c-2.211,0-4-1.789-4-3.999v-23.997c0-2.21,1.789-4,4-4h207.966c2.21,0,4,1.789,4,4
				s-1.789,4-4,4H8.041v15.997h463.925v-15.997H267.998c-2.21,0-3.999-1.789-3.999-4s1.789-4,3.999-4h207.967
				c2.211,0,3.999,1.789,3.999,4v23.997C479.964,242.214,478.176,244.003,475.965,244.003z"/>
		</g>
		<g>
			<path fill="#3A3847" d="M411.975,475.966H68.031c-1.898,0-3.53-1.328-3.917-3.188L16.122,240.812
				c-0.445-2.159,0.945-4.276,3.108-4.726c2.137-0.46,4.277,0.941,4.726,3.109l47.333,228.771h337.429l47.328-228.771
				c0.453-2.168,2.562-3.569,4.733-3.109c2.156,0.449,3.547,2.566,3.109,4.726l-47.992,231.966
				C415.506,474.638,413.873,475.966,411.975,475.966z"/>
		</g>
		<g>
			<path fill="#3A3847" d="M411.975,475.966c-1.288,0-2.562-0.625-3.327-1.781c-1.227-1.836-0.734-4.319,1.109-5.546l22.637-15.083
				l45.415-218.207c0.453-2.164,2.546-3.543,4.733-3.102c2.155,0.453,3.546,2.57,3.101,4.733l-45.75,219.808
				c-0.219,1.023-0.828,1.929-1.703,2.507l-23.996,15.998C413.506,475.747,412.74,475.966,411.975,475.966z"/>
		</g>
		<g>
			<path fill="#3A3847" d="M240.003,427.974c-8.823,0-15.998-7.171-15.998-15.998V299.994c0-8.819,7.174-15.997,15.998-15.997
				c8.823,0,15.997,7.178,15.997,15.997v111.981C256,420.803,248.826,427.974,240.003,427.974z M240.003,291.995
				c-4.409,0-7.999,3.594-7.999,7.999v111.981c0,4.414,3.59,7.999,7.999,7.999s7.999-3.585,7.999-7.999V299.994
				C248.002,295.589,244.413,291.995,240.003,291.995z"/>
		</g>
		<g>
			<path fill="#3A3847" d="M152.018,427.974c-8.823,0-15.998-7.171-15.998-15.998l-7.987-111.692
				c-0.011-9.108,7.163-16.286,15.986-16.286c8.822,0,15.997,7.178,15.997,15.997l7.987,111.7
				C168.015,420.803,160.84,427.974,152.018,427.974z M144.019,291.995c-4.41,0-7.999,3.594-7.999,7.999l7.987,111.7
				c0.012,4.695,3.601,8.28,8.01,8.28s7.999-3.585,7.999-7.999l-7.987-111.692C152.018,295.589,148.428,291.995,144.019,291.995z"/>
		</g>
		<g>
			<path fill="#3A3847" d="M327.988,427.974c-8.826,0-15.997-7.171-15.997-15.998l8.015-112.263
				c-0.016-8.538,7.154-15.716,15.981-15.716s15.997,7.178,15.997,15.997l-8.014,112.271
				C343.986,420.803,336.815,427.974,327.988,427.974z M335.987,291.995c-4.405,0-7.999,3.594-7.999,7.999l-8.014,112.271
				c0.016,4.125,3.608,7.71,8.014,7.71c4.406,0,7.999-3.585,7.999-7.999l8.015-112.263
				C343.986,295.589,340.393,291.995,335.987,291.995z"/>
		</g>
		<g>
			<path fill="#3A3847" d="M4.045,220.007c-1.293,0-2.562-0.625-3.332-1.781c-1.226-1.839-0.73-4.319,1.109-5.546l23.996-15.997
				c1.844-1.23,4.324-0.73,5.546,1.109c1.227,1.839,0.73,4.32-1.109,5.546L6.26,219.335C5.576,219.789,4.807,220.007,4.045,220.007z
				"/>
		</g>
		<g>
			<path fill="#3A3847" d="M475.965,220.007c-1.289,0-2.562-0.625-3.328-1.781c-1.226-1.839-0.733-4.319,1.109-5.546l23.996-15.997
				c1.844-1.23,4.32-0.73,5.547,1.109c1.226,1.839,0.733,4.32-1.109,5.546l-23.996,15.997
				C477.496,219.789,476.73,220.007,475.965,220.007z"/>
		</g>
		<g>
			<path fill="#3A3847" d="M475.965,244.003c-1.289,0-2.562-0.625-3.328-1.781c-1.226-1.84-0.726-4.319,1.109-5.546l23.996-15.997
				c1.844-1.227,4.32-0.727,5.547,1.109c1.226,1.835,0.733,4.319-1.109,5.546l-23.996,15.997
				C477.496,243.785,476.73,244.003,475.965,244.003z"/>
		</g>
		<g>
			<path fill="#3A3847" d="M499.961,204.01h-7.999c-2.21,0-3.999-1.789-3.999-4c0-2.21,1.789-3.999,3.999-3.999h7.999
				c2.211,0,3.999,1.789,3.999,3.999C503.96,202.221,502.172,204.01,499.961,204.01z"/>
		</g>
		<g>
			<path fill="#3A3847" d="M36.036,204.01h-7.999c-2.211,0-4-1.789-4-4c0-2.21,1.789-3.999,4-3.999h7.999c2.21,0,4,1.789,4,3.999
				C40.036,202.221,38.247,204.01,36.036,204.01z"/>
		</g>
		<g>
			<path fill="#3A3847" d="M499.961,228.006c-2.211,0-3.999-1.789-3.999-4V200.01c0-2.21,1.788-3.999,3.999-3.999
				s3.999,1.789,3.999,3.999v23.996C503.96,226.217,502.172,228.006,499.961,228.006z"/>
		</g>
		<g>
			<path fill="#3A3847" d="M252.001,232.005c-2.211,0-4-1.789-4-3.999V60.033h-15.998v167.974c0,2.21-1.789,3.999-3.999,3.999
				c-2.211,0-4-1.789-4-3.999V56.034c0-2.211,1.789-3.999,4-3.999h23.996c2.21,0,3.999,1.788,3.999,3.999v171.973
				C256,230.216,254.212,232.005,252.001,232.005z"/>
		</g>
		<g>
			<path fill="#3A3847" d="M275.997,188.012c-2.211,0-3.999-1.789-3.999-3.999V40.037c0-2.211,1.788-4,3.999-4
				c2.21,0,3.999,1.789,3.999,4v143.977C279.996,186.224,278.207,188.012,275.997,188.012z"/>
		</g>
		<g>
			<path fill="#3A3847" d="M252.005,60.033c-1.293,0-2.562-0.625-3.332-1.78c-1.226-1.84-0.73-4.32,1.109-5.546l23.996-15.998
				c1.844-1.23,4.319-0.73,5.546,1.109s0.734,4.319-1.109,5.546L254.22,59.361C253.537,59.814,252.767,60.033,252.005,60.033z"/>
		</g>
		<g>
			<path fill="#3A3847" d="M228.009,60.033c-1.293,0-2.562-0.625-3.332-1.78c-1.226-1.84-0.73-4.32,1.109-5.546l23.996-15.998
				c1.836-1.23,4.32-0.73,5.546,1.109c1.226,1.84,0.73,4.319-1.109,5.546l-23.996,15.998
				C229.541,59.814,228.771,60.033,228.009,60.033z"/>
		</g>
		<g>
			<path fill="#3A3847" d="M283.996,204.01h-15.998c-2.21,0-3.999-1.789-3.999-4c0-2.21,1.789-3.999,3.999-3.999h15.998
				c2.21,0,3.999,1.789,3.999,3.999C287.995,202.221,286.206,204.01,283.996,204.01z"/>
		</g>
		<g>
			<path fill="#3A3847" d="M475.965,204.01c-0.773,0-1.547-0.222-2.234-0.683c-1.827-1.234-2.312-3.719-1.078-5.55l31.979-47.973
				c1.219-1.847,3.703-2.347,5.546-1.117c1.836,1.226,2.336,3.706,1.109,5.546l-32.01,48.012
				C478.512,203.393,477.246,204.01,475.965,204.01z"/>
		</g>
		<g>
			<path fill="#3A3847" d="M507.96,156.018h-23.996c-2.211,0-4-1.789-4-4c0-2.21,1.789-3.999,4-3.999h23.996
				c2.21,0,3.999,1.789,3.999,3.999C511.959,154.229,510.17,156.018,507.96,156.018z"/>
		</g>
		<g>
			<path fill="#3A3847" d="M164.016,204.01c-2.21,0-4-1.789-4-4v-43.993H88.028v43.993c0,2.211-1.789,4-3.999,4
				c-2.211,0-4-1.789-4-4v-47.992c0-2.21,1.789-3.999,4-3.999h79.987c2.21,0,4,1.789,4,3.999v47.992
				C168.015,202.221,166.226,204.01,164.016,204.01z"/>
		</g>
		<g>
			<path fill="#3A3847" d="M212.008,204.01h-31.995c-2.211,0-4-1.789-4-4c0-2.21,1.789-3.999,4-3.999h31.995c2.21,0,4,1.789,4,3.999
				C216.007,202.221,214.218,204.01,212.008,204.01z"/>
		</g>
		<g>
			<path fill="#3A3847" d="M164.02,156.018c-1.292,0-2.562-0.625-3.332-1.781l-15.997-23.996c-1.227-1.84-0.73-4.32,1.109-5.546
				c1.835-1.227,4.32-0.73,5.546,1.109l15.998,23.996c1.227,1.839,0.73,4.32-1.109,5.546
				C165.55,155.799,164.781,156.018,164.02,156.018z"/>
		</g>
		<g>
			<path fill="#3A3847" d="M84.033,156.018c-1.293,0-2.562-0.625-3.332-1.781l-15.997-23.996c-1.227-1.84-0.73-4.32,1.109-5.546
				c1.839-1.227,4.323-0.73,5.546,1.109L87.356,149.8c1.227,1.839,0.73,4.32-1.109,5.546
				C85.563,155.799,84.794,156.018,84.033,156.018z"/>
		</g>
		<g>
			<path fill="#3A3847" d="M52.03,156.018c-0.762,0-1.531-0.219-2.215-0.672c-1.839-1.226-2.335-3.707-1.109-5.546l15.998-23.996
				c1.218-1.839,3.698-2.335,5.546-1.109c1.839,1.226,2.335,3.706,1.109,5.546l-15.998,23.996
				C54.592,155.393,53.323,156.018,52.03,156.018z"/>
		</g>
		<g>
			<path fill="#3A3847" d="M52.034,204.01c-2.211,0-4-1.789-4-4v-47.992c0-2.21,1.789-3.999,4-3.999c2.21,0,3.999,1.789,3.999,3.999
				v47.992C56.033,202.221,54.244,204.01,52.034,204.01z"/>
		</g>
		<g>
			<path fill="#3A3847" d="M68.031,204.01c-2.21,0-3.999-1.789-3.999-4v-39.993c0-2.211,1.789-4,3.999-4c2.211,0,4,1.789,4,4v39.993
				C72.03,202.221,70.242,204.01,68.031,204.01z"/>
		</g>
		<g>
			<path fill="#3A3847" d="M148.018,132.021H68.031c-2.21,0-3.999-1.789-3.999-4v-15.997c0-2.211,1.789-4,3.999-4h79.987
				c2.211,0,4,1.789,4,4v15.997C152.018,130.233,150.229,132.021,148.018,132.021z M72.03,124.023h71.989v-7.999H72.03V124.023z"/>
		</g>
		<g>
			<path fill="#3A3847" d="M275.997,44.036h-23.996c-2.211,0-4-1.789-4-3.999c0-2.211,1.789-4,4-4h23.996
				c2.21,0,3.999,1.789,3.999,4C279.996,42.247,278.207,44.036,275.997,44.036z"/>
		</g>
		<g>
			<path fill="#3A3847" d="M347.985,204.01c-2.21,0-3.999-1.789-3.999-4c0-11.025-8.968-19.997-19.997-19.997
				s-19.997,8.971-19.997,19.997c0,2.211-1.788,4-3.999,4s-3.999-1.789-3.999-4c0-15.435,12.561-27.995,27.995-27.995
				s27.995,12.561,27.995,27.995C351.984,202.221,350.196,204.01,347.985,204.01z"/>
		</g>
		<g>
			<path fill="#3A3847" d="M315.99,172.015c-2.21,0-3.999-1.789-3.999-4v-7.999c0-2.211,1.789-4,3.999-4c2.211,0,4,1.789,4,4v7.999
				C319.99,170.226,318.201,172.015,315.99,172.015z"/>
		</g>
		<g>
			<path fill="#3A3847" d="M331.988,172.015c-2.211,0-4-1.789-4-4v-7.999c0-2.211,1.789-4,4-4c2.21,0,3.999,1.789,3.999,4v7.999
				C335.987,170.226,334.198,172.015,331.988,172.015z"/>
		</g>
		<g>
			<path fill="#3A3847" d="M347.985,156.018c-0.25,0-0.516-0.023-0.781-0.078l-39.993-7.999c-2.172-0.434-3.578-2.539-3.141-4.707
				s2.531-3.601,4.703-3.136l39.993,7.999c2.171,0.434,3.577,2.539,3.14,4.706C351.531,154.706,349.86,156.018,347.985,156.018z"/>
		</g>
		<g>
			<path fill="#3A3847" d="M307.992,164.016c-2.211,0-4-1.789-4-3.999V144.02c0-2.21,1.789-4,4-4c2.21,0,3.999,1.789,3.999,4v15.998
				C311.991,162.228,310.202,164.016,307.992,164.016z"/>
		</g>
		<g>
			<path fill="#3A3847" d="M347.985,164.016h-39.993c-2.211,0-4-1.789-4-3.999c0-2.211,1.789-4,4-4h39.993
				c2.211,0,3.999,1.789,3.999,4C351.984,162.228,350.196,164.016,347.985,164.016z"/>
		</g>
		<g>
			<path fill="#3A3847" d="M347.985,164.016c-2.21,0-3.999-1.789-3.999-3.999v-7.999c0-2.21,1.789-3.999,3.999-3.999
				c2.211,0,3.999,1.789,3.999,3.999v7.999C351.984,162.228,350.196,164.016,347.985,164.016z"/>
		</g>
		<g>
			<path fill="#3A3847" d="M141.941,204.01c-1.09,0-2.179-0.445-2.968-1.32c-7.69-8.522-22.086-8.593-29.815,0
				c-1.496,1.636-4.011,1.761-5.651,0.293c-1.64-1.48-1.769-4.011-0.293-5.651c5.343-5.921,12.923-9.319,20.809-9.319
				c7.933,0,15.544,3.398,20.887,9.319c1.48,1.64,1.351,4.167-0.289,5.647C143.855,203.67,142.898,204.01,141.941,204.01z"/>
		</g>
		<g>
			<path fill="#3A3847" d="M252.001,232.005h-23.996c-2.211,0-4-1.789-4-3.999c0-2.211,1.789-4,4-4h23.996
				c2.21,0,3.999,1.789,3.999,4C256,230.216,254.212,232.005,252.001,232.005z"/>
		</g>
	</g>
</g>
</svg>
